<?xml version="1.0" standalone="no"?><!DOCTYPE svg PUBLIC "-//W3C//DTD SVG 1.1//EN" "http://www.w3.org/Graphics/SVG/1.1/DTD/svg11.dtd"><svg t="1789280101112" class="icon" viewBox="0 0 1024 1024" version="1.1" xmlns="http://www.w3.org/2000/svg" p-id="6361" xmlns:xlink="http://www.w3.org/1999/xlink" width="200" height="200"><path d="M128 170.666667a42.666667 42.666667 0 0 1 42.666667-42.666667h256v85.333333H213.333333v170.666667h213.333334v85.333333H170.666667a42.666667 42.666667 0 0 1-42.666667-42.666666V170.666667z" fill="#ffffff" p-id="6362"></path><path d="M597.333333 341.333333H298.666667v-85.333333h298.666666v85.333333zM725.333333 768H426.666667v-85.333333h298.666666v85.333333zM341.333333 426.666667v298.666666h-85.333333V426.666667h85.333333zM768 298.666667v298.666666h-85.333333V298.666667h85.333333z" fill="#ffffff" p-id="6363"></path><path d="M213.333333 810.666667V597.333333H128v256a42.666667 42.666667 0 0 0 42.666667 42.666667h256a42.666667 42.666667 0 0 0 42.666666-42.666667V597.333333h-85.333333v213.333334h-170.666667zM554.666667 170.666667a42.666667 42.666667 0 0 1 42.666666-42.666667h256a42.666667 42.666667 0 0 1 42.666667 42.666667v256h-85.333333V213.333333h-170.666667v213.333334h-85.333333V170.666667zM597.333333 640v-85.333333h256a42.666667 42.666667 0 0 1 42.666667 42.666666v256a42.666667 42.666667 0 0 1-42.666667 42.666667H597.333333v-85.333333h213.333334v-170.666667H597.333333z" fill="#ffffff" p-id="6364"></path></svg>